<?xml version="1.0" standalone="no"?><!DOCTYPE svg PUBLIC "-//W3C//DTD SVG 1.1//EN" "http://www.w3.org/Graphics/SVG/1.1/DTD/svg11.dtd"><svg t="1687748738903" class="icon" viewBox="0 0 1024 1024" version="1.1" xmlns="http://www.w3.org/2000/svg" p-id="22610" xmlns:xlink="http://www.w3.org/1999/xlink" width="16" height="16"><path d="M515.1 330.6v364.1H92.7V330.6h422.4z m367.4-39.4h-787c-23.5-0.2-42.8 18.6-43.3 42.2v358.1c0.5 23.5 19.8 42.3 43.3 42.1h787c23 0.3 42.2-17.5 43.6-40.5V333.4c-0.5-23.6-19.9-42.5-43.6-42.2z m0-50.3c51.8-0.6 94.4 40.7 95.3 92.5v86.8c25.7 0.9 46.1 21.8 46.4 47.5v89.4c-0.3 25.7-20.7 46.6-46.4 47.5v86.8c-0.9 51.8-43.5 93.1-95.3 92.5h-787c-51.8 0.6-94.4-40.7-95.3-92.5v-358c0.9-51.8 43.5-93.1 95.3-92.5h787z" fill="#ff0000" p-id="22611"></path></svg>