<?xml version="1.0" standalone="no"?><!DOCTYPE svg PUBLIC "-//W3C//DTD SVG 1.1//EN" "http://www.w3.org/Graphics/SVG/1.1/DTD/svg11.dtd"><svg t="1687748876306" class="icon" viewBox="0 0 1024 1024" version="1.1" xmlns="http://www.w3.org/2000/svg" p-id="26395" xmlns:xlink="http://www.w3.org/1999/xlink" width="16" height="16"><path d="M662 1015h-10c12-27 25-53 35-81 17-48 7-89-34-122-24-19-48-39-71-60s-41-48-42-80 3-52 5-80c-3 0-8-1-12 1-34 16-69 31-101 51-131 80-124 217-54 315 11 16 25 30 39 47-51-8-129-48-187-94-99-80-141-184-127-310 8-73 49-129 99-179 31-31 50-69 62-111l9-30c38 62 28 127 32 195l29-16c69-46 107-116 136-189 34-85 44-174 21-264h5c199 139 269 344 290 577 57-32 87-79 105-137 4 6 6 8 7 11 36 90 50 184 40 281-5 47-25 89-56 124-62 67-136 115-220 151z" fill="#ff0000" p-id="26396"></path></svg>