<?xml version="1.0" standalone="no"?><!DOCTYPE svg PUBLIC "-//W3C//DTD SVG 1.1//EN" "http://www.w3.org/Graphics/SVG/1.1/DTD/svg11.dtd"><svg t="1687748503001" class="icon" viewBox="0 0 1024 1024" version="1.1" xmlns="http://www.w3.org/2000/svg" p-id="2389" xmlns:xlink="http://www.w3.org/1999/xlink" width="16" height="16"><path d="M259.65952301 224.50080448C106.00833319 262.37655834 83.73512916 396.46802959 88.59679354 471.99341227 92.32783723 528.41132498 120.9325109 624.1747953 136.64812175 699.02180587l237.76927904-15.4894873c-3.16573408-74.39476196 30.18753997-146.75441055 57.5485334-206.90336695 32.33571737-71.22902788-21.82095692-289.4385899-172.30641118-252.12814714zM143.20571493 753.63072724c1.92205382 11.19313253 3.2787966 21.70789441 4.07022975 31.09203564C153.04210471 858.55221673 195.21421185 949.00177561 289.16869086 932.3816691c93.95448049-16.62010652 113.85338358-92.71079877 92.14548917-181.69055238-1.01755818-4.18329226-1.92205382-8.25352199-2.60042449-12.43681425L143.20571493 753.63072724zM819.8814814 103.29839456C684.32020485 28.11219943 575.10236061 224.50080448 587.76529989 301.83517847c10.62782293 65.12368329 23.96913284 143.588675 1.5828663 214.70464185l225.5585898 76.99518644c34.71001828-68.17635484 87.28382481-153.31200373 105.48679762-206.67724339 24.42138142-71.56821396 37.87575237-206.79030445-100.51207221-283.55936881zM557.23857386 586.52516652c-44.32028451 80.27398451-44.77253161 158.85203876 41.493735 199.5543406 86.37932914 40.58923936 150.71157779-35.72757646 175.47214526-105.5998616 3.16573408-8.81883159 7.2359653-18.54216034 11.9845657-28.94385825l-223.1842874-76.31681582c-1.80899133 3.8441062-3.73104368 7.57514989-5.76615856 11.30619507z" p-id="2390" fill="#ff0000"></path></svg>